<?xml version="1.0" encoding="us-ascii" standalone="no"?><svg xmlns="http://www.w3.org/2000/svg" xmlns:xlink="http://www.w3.org/1999/xlink" contentStyleType="text/css" height="451px" preserveAspectRatio="none" style="width:1020px;height:451px;background:#FFFFFF;" version="1.1" viewBox="0 0 1020 451" width="1020px" zoomAndPan="magnify"><defs/><g><!--cluster Auto_Reroute--><g id="cluster_Auto_Reroute"><polygon fill="none" points="29.1579,6,145.1579,6,152.1579,28.2969,588.1579,28.2969,588.1579,444,29.1579,444,29.1579,6" style="stroke:#000000;stroke-width:1.5;"/><line style="stroke:#000000;stroke-width:1.5;" x1="29.1579" x2="152.1579" y1="28.2969" y2="28.2969"/><text fill="#000000" font-family="sans-serif" font-size="14" font-weight="bold" lengthAdjust="spacing" textLength="110" x="33.1579" y="20.9951">Auto_Reroute</text></g><!--cluster TF Listener--><g id="cluster_TF Listener"><polygon fill="none" points="286.1579,49,383.1579,49,390.1579,71.2969,564.1579,71.2969,564.1579,420,286.1579,420,286.1579,49" style="stroke:#000000;stroke-width:1.5;"/><line style="stroke:#000000;stroke-width:1.5;" x1="286.1579" x2="390.1579" y1="71.2969" y2="71.2969"/><text fill="#000000" font-family="sans-serif" font-size="14" font-weight="bold" lengthAdjust="spacing" textLength="91" x="290.1579" y="63.9951">TF Listener</text></g><!--cluster Planning State Callback--><g id="cluster_Planning State Callback"><polygon fill="none" points="53.1579,49,252.1579,49,259.1579,71.2969,262.1579,71.2969,262.1579,420,53.1579,420,53.1579,49" style="stroke:#000000;stroke-width:1.5;"/><line style="stroke:#000000;stroke-width:1.5;" x1="53.1579" x2="259.1579" y1="71.2969" y2="71.2969"/><text fill="#000000" font-family="sans-serif" font-size="14" font-weight="bold" lengthAdjust="spacing" textLength="193" x="57.1579" y="63.9951">Planning State Callback</text></g><!--cluster Autoware--><g id="cluster_Autoware"><polygon fill="none" points="612.1579,168,696.1579,168,703.1579,190.2969,994.1579,190.2969,994.1579,320,612.1579,320,612.1579,168" style="stroke:#000000;stroke-width:1.5;"/><line style="stroke:#000000;stroke-width:1.5;" x1="612.1579" x2="703.1579" y1="190.2969" y2="190.2969"/><text fill="#000000" font-family="sans-serif" font-size="14" font-weight="bold" lengthAdjust="spacing" textLength="78" x="616.1579" y="182.9951">Autoware</text></g><!--cluster Planning--><g id="cluster_Planning"><polygon fill="none" points="820.1579,211,896.1579,211,903.1579,233.2969,970.1579,233.2969,970.1579,296,820.1579,296,820.1579,211" style="stroke:#000000;stroke-width:1.5;"/><line style="stroke:#000000;stroke-width:1.5;" x1="820.1579" x2="903.1579" y1="233.2969" y2="233.2969"/><text fill="#000000" font-family="sans-serif" font-size="14" font-weight="bold" lengthAdjust="spacing" textLength="70" x="824.1579" y="225.9951">Planning</text></g><!--cluster Control--><g id="cluster_Control"><polygon fill="none" points="636.1579,211,702.1579,211,709.1579,233.2969,796.1579,233.2969,796.1579,296,636.1579,296,636.1579,211" style="stroke:#000000;stroke-width:1.5;"/><line style="stroke:#000000;stroke-width:1.5;" x1="636.1579" x2="709.1579" y1="233.2969" y2="233.2969"/><text fill="#000000" font-family="sans-serif" font-size="14" font-weight="bold" lengthAdjust="spacing" textLength="60" x="640.1579" y="225.9951">Control</text></g><rect fill="#F1F1F1" height="33.9688" rx="12.5" ry="12.5" style="stroke:#181818;stroke-width:0.5;" width="245" x="302.6579" y="84"/><text fill="#000000" font-family="sans-serif" font-size="12" lengthAdjust="spacing" textLength="225" x="312.6579" y="105.1387">Check ego_vehicle's distance to goal</text><g id="elem_#5"><polygon fill="#F1F1F1" points="433.1579,251,445.1579,263,433.1579,275,421.1579,263,433.1579,251" style="stroke:#181818;stroke-width:0.5;"/></g><rect fill="#F1F1F1" height="33.9688" rx="12.5" ry="12.5" style="stroke:#181818;stroke-width:0.5;" width="115" x="408.6579" y="370"/><text fill="#000000" font-family="sans-serif" font-size="12" lengthAdjust="spacing" textLength="95" x="418.6579" y="391.1387">Send new pose</text><rect fill="#F1F1F1" height="33.9688" rx="12.5" ry="12.5" style="stroke:#181818;stroke-width:0.5;" width="145" x="100.6579" y="84"/><text fill="#000000" font-family="sans-serif" font-size="12" lengthAdjust="spacing" textLength="125" x="110.6579" y="105.1387">Check planning state</text><g id="elem_#22"><polygon fill="#F1F1F1" points="163.1579,251,175.1579,263,163.1579,275,151.1579,263,163.1579,251" style="stroke:#181818;stroke-width:0.5;"/></g><rect fill="#F1F1F1" height="33.9688" rx="12.5" ry="12.5" style="stroke:#181818;stroke-width:0.5;" width="153" x="92.6579" y="370"/><text fill="#000000" font-family="sans-serif" font-size="12" lengthAdjust="spacing" textLength="133" x="102.6579" y="391.1387">Send Engage Request</text><rect fill="#F1F1F1" height="33.9688" rx="12.5" ry="12.5" style="stroke:#181818;stroke-width:0.5;" width="117" x="836.6579" y="246"/><text fill="#000000" font-family="sans-serif" font-size="12" lengthAdjust="spacing" textLength="97" x="846.6579" y="267.1387">mission_planner</text><rect fill="#F1F1F1" height="33.9688" rx="12.5" ry="12.5" style="stroke:#181818;stroke-width:0.5;" width="128" x="652.1579" y="246"/><text fill="#000000" font-family="sans-serif" font-size="12" lengthAdjust="spacing" textLength="108" x="662.1579" y="267.1387">vehicle_cmd_gate</text><!--link Check ego_vehicle's distance to goal to #5--><g id="link_Check ego_vehicle's distance to goal_#5"><path d="M420.8149,118.003 C419.3409,124.199 417.8849,131.381 417.1579,138 C412.7509,178.15 423.2039,225.448 429.2429,248.289 " fill="none" id="Check ego_vehicle's distance to goal-to-#5" style="stroke:#181818;stroke-width:1.0;"/><polygon fill="#181818" points="430.6009,253.294,432.106,243.5608,429.2923,248.4683,424.3848,245.6546,430.6009,253.294" style="stroke:#181818;stroke-width:1.0;"/><text fill="#000000" font-family="sans-serif" font-size="11" lengthAdjust="spacing" textLength="102" x="310.8601" y="246.4351">Dist &lt; MIN_DIST ?</text></g><!--reverse link Check ego_vehicle's distance to goal to #5--><g id="link_Check ego_vehicle's distance to goal_#5"><path d="M426.2339,123.51 C427.9709,158.266 431.3329,225.495 432.6299,251.434 " fill="none" id="Check ego_vehicle's distance to goal-backto-#5" style="stroke:#181818;stroke-width:1.0;"/><polygon fill="#181818" points="425.9689,118.222,422.4238,127.4107,426.2188,123.2157,430.4138,127.0108,425.9689,118.222" style="stroke:#181818;stroke-width:1.0;"/><text fill="#000000" font-family="sans-serif" font-size="11" lengthAdjust="spacing" textLength="15" x="429.1579" y="149.2104">No</text></g><!--link #5 to Send new pose--><g id="link_#5_Send new pose"><path d="M431.7139,273.679 C429.6839,290.023 427.2519,323.864 437.1579,350 C439.2909,355.628 442.6639,361.0489 446.3659,365.9002 " fill="none" id="#5-to-Send new pose" style="stroke:#181818;stroke-width:1.0;"/><polygon fill="#181818" points="449.5339,369.8334,447.0041,360.315,446.3977,365.9393,440.7734,365.3329,449.5339,369.8334" style="stroke:#181818;stroke-width:1.0;"/><text fill="#000000" font-family="sans-serif" font-size="11" lengthAdjust="spacing" textLength="21" x="438.1579" y="347.2104">Yes</text></g><!--link Send new pose to Check ego_vehicle's distance to goal--><g id="link_Send new pose_Check ego_vehicle's distance to goal"><path d="M466.3369,369.7421 C466.5379,332.465 465.8409,238.034 455.1579,160 C453.7979,150.066 454.2029,147.175 450.1579,138 C447.8079,132.669 444.6269,127.307 441.3229,122.409 " fill="none" id="Send new pose-to-Check ego_vehicle's distance to goal" style="stroke:#181818;stroke-width:1.0;"/><polygon fill="#181818" points="438.2749,118.056,440.1616,127.7225,441.1432,122.1514,446.7143,123.1331,438.2749,118.056" style="stroke:#181818;stroke-width:1.0;"/></g><!--reverse link mission_planner to Send new pose--><g id="link_mission_planner_Send new pose"><path d="M881.0209,284.499 C865.6729,304.932 839.1599,335.32 808.1579,350 C759.1899,373.1877 607.7479,381.5917 523.7509,384.5193 " fill="none" id="mission_planner-backto-Send new pose" style="stroke:#181818;stroke-width:1.0;"/><polygon fill="#181818" points="884.1239,280.3,875.5584,285.1613,881.1525,284.3213,881.9925,289.9155,884.1239,280.3" style="stroke:#181818;stroke-width:1.0;"/><text fill="#000000" font-family="sans-serif" font-size="11" lengthAdjust="spacing" textLength="181" x="831.1579" y="347.2104">/planning/mission_planning/goal</text></g><!--reverse link Check planning state to mission_planner--><g id="link_Check planning state_mission_planner"><path d="M250.8489,113.411 C263.6319,115.089 276.7539,116.69 289.1579,118 C400.9249,129.805 691.4729,112.132 793.1579,160 C834.1699,179.306 868.1769,222.301 884.5839,245.837 " fill="none" id="Check planning state-backto-mission_planner" style="stroke:#181818;stroke-width:1.0;"/><polygon fill="#181818" points="245.7789,112.74,254.1751,117.888,250.7355,113.3971,255.2265,109.9574,245.7789,112.74" style="stroke:#181818;stroke-width:1.0;"/><text fill="#000000" font-family="sans-serif" font-size="11" lengthAdjust="spacing" textLength="90" x="767.1579" y="149.2104">/autoware/state</text></g><!--link Check planning state to #22--><g id="link_Check planning state_#22"><path d="M161.3709,118.031 C157.6639,123.994 154.0459,131.015 152.1579,138 C141.6099,177.016 152.3429,225.2 158.8939,248.337 " fill="none" id="Check planning state-to-#22" style="stroke:#181818;stroke-width:1.0;"/><polygon fill="#181818" points="160.3749,253.401,161.6868,243.6399,158.9709,248.6022,154.0087,245.8862,160.3749,253.401" style="stroke:#181818;stroke-width:1.0;"/><text fill="#000000" font-family="sans-serif" font-size="11" lengthAdjust="spacing" textLength="137" x="6" y="247.9073">WAITING_FOR_ENGAGE?</text></g><!--link #22 to Check planning state--><g id="link_#22_Check planning state"><path d="M163.8179,251.434 C165.4399,225.495 169.6409,158.266 171.8139,123.51 " fill="none" id="#22-to-Check planning state" style="stroke:#181818;stroke-width:1.0;"/><polygon fill="#181818" points="172.1439,118.222,167.5885,126.9541,171.831,123.2122,175.5729,127.4547,172.1439,118.222" style="stroke:#181818;stroke-width:1.0;"/><text fill="#000000" font-family="sans-serif" font-size="11" lengthAdjust="spacing" textLength="15" x="172.1579" y="149.2104">No</text></g><!--link #22 to Send Engage Request--><g id="link_#22_Send Engage Request"><path d="M163.6199,274.593 C164.3349,290.827 165.7719,322.832 167.1579,350 C167.4019,354.775 167.6779,359.905 167.9459,364.7528 " fill="none" id="#22-to-Send Engage Request" style="stroke:#181818;stroke-width:1.0;"/><polygon fill="#181818" points="168.2309,369.873,171.7241,360.6644,167.9527,364.8807,163.7365,361.1094,168.2309,369.873" style="stroke:#181818;stroke-width:1.0;"/><text fill="#000000" font-family="sans-serif" font-size="11" lengthAdjust="spacing" textLength="21" x="168.1579" y="347.2104">Yes</text></g><!--link Send Engage Request to Check planning state--><g id="link_Send Engage Request_Check planning state"><path d="M181.7329,369.6841 C185.5339,363.805 189.2139,356.91 191.1579,350 C216.6779,259.3 212.8059,229.702 191.1579,138 C189.9539,132.899 187.9099,127.698 185.6229,122.892 " fill="none" id="Send Engage Request-to-Check planning state" style="stroke:#181818;stroke-width:1.0;"/><polygon fill="#181818" points="183.2759,118.236,183.7545,128.0732,185.5262,122.701,190.8985,124.4727,183.2759,118.236" style="stroke:#181818;stroke-width:1.0;"/></g><!--link Send Engage Request to vehicle_cmd_gate--><g id="link_Send Engage Request_vehicle_cmd_gate"><path d="M245.8969,375.0811 C260.2559,373.2333 275.1509,371.4475 289.1579,370 C409.7309,357.54 445.0029,384.6587 561.1579,350 C610.0639,335.407 660.6549,303.629 690.2229,283.056 " fill="none" id="Send Engage Request-to-vehicle_cmd_gate" style="stroke:#181818;stroke-width:1.0;"/><polygon fill="#181818" points="694.4309,280.106,684.7659,282.0004,690.3377,282.9776,689.3605,288.5494,694.4309,280.106" style="stroke:#181818;stroke-width:1.0;"/><text fill="#000000" font-family="sans-serif" font-size="11" lengthAdjust="spacing" textLength="143" x="599.1579" y="347.2104">/api/external/set/engage</text></g><!--SRC=[ZLBBQiCm4BpdAvQzz1Jy0wKbv8MXTKiIAAK4eJfRHqIHL4jk2g7_Nabn7ETnCBhjpEwEPjRmqWadj08SL4wp6PMwSeJxdZaXYmay2Uj8KOcmxm7WS4tv1gZGx8VM8fTqPs7bALpb14v3eRb4wFSVG7m1ZZm2z_2SPcoKpXVmYE3MfC1FWaZwU2Ux19oJMe6Y7HXj2JrAqjA1L9b0o_Iou-vUK7a-BsxgsFtdNyk1OCsEbnG_tpBcLNAbX2fm7rLUBJoeJanDIxR2Mj_8caBOjiIpilVO3mi2J9TiZX9WxhWZ678fFtc-YOgk1ZUAUFsXn8QknjIZBeXbX5FKbmWquRuDqaMQJTdaPSR6sNGm7TVntanth0fU4CpekoBhi6NR1T9EwuQiqsLStCKLjsEKGwrSgULPahSaUU-CIEZNKQcuJ2ovX2BDAwWlYkNR5Il2zaEG_m00]--></g></svg>